<svg width="80" height="80" viewBox="0 0 80 80" fill="none" xmlns="http://www.w3.org/2000/svg">
<rect width="80" height="80" fill="white"/>
<path d="M38.5 70C38.5 70.8284 39.1716 71.5 40 71.5C40.8284 71.5 41.5 70.8284 41.5 70H38.5ZM41.0607 8.93934C40.4749 8.35355 39.5251 8.35355 38.9393 8.93934L29.3934 18.4853C28.8076 19.0711 28.8076 20.0208 29.3934 20.6066C29.9792 21.1924 30.9289 21.1924 31.5147 20.6066L40 12.1213L48.4853 20.6066C49.0711 21.1924 50.0208 21.1924 50.6066 20.6066C51.1924 20.0208 51.1924 19.0711 50.6066 18.4853L41.0607 8.93934ZM41.5 70L41.5 10H38.5L38.5 70H41.5Z" fill="black"/>
</svg>
