<svg width="80" height="80" viewBox="0 0 80 80" fill="none" xmlns="http://www.w3.org/2000/svg">
<rect width="80" height="80" fill="white"/>
<path d="M10 38.5C9.17157 38.5 8.5 39.1716 8.5 40C8.5 40.8284 9.17157 41.5 10 41.5V38.5ZM71.0607 41.0607C71.6464 40.4749 71.6464 39.5251 71.0607 38.9393L61.5147 29.3934C60.9289 28.8076 59.9792 28.8076 59.3934 29.3934C58.8076 29.9792 58.8076 30.9289 59.3934 31.5147L67.8787 40L59.3934 48.4853C58.8076 49.0711 58.8076 50.0208 59.3934 50.6066C59.9792 51.1924 60.9289 51.1924 61.5147 50.6066L71.0607 41.0607ZM10 41.5L70 41.5V38.5L10 38.5V41.5Z" fill="black"/>
</svg>
