<svg width="80" height="80" viewBox="0 0 80 80" fill="none" xmlns="http://www.w3.org/2000/svg">
<rect width="80" height="80" fill="white"/>
<path d="M70 41.5C70.8284 41.5 71.5 40.8284 71.5 40C71.5 39.1716 70.8284 38.5 70 38.5L70 41.5ZM8.93934 38.9393C8.35355 39.5251 8.35355 40.4749 8.93934 41.0607L18.4853 50.6066C19.0711 51.1924 20.0208 51.1924 20.6066 50.6066C21.1924 50.0208 21.1924 49.0711 20.6066 48.4853L12.1213 40L20.6066 31.5147C21.1924 30.9289 21.1924 29.9792 20.6066 29.3934C20.0208 28.8076 19.0711 28.8076 18.4853 29.3934L8.93934 38.9393ZM70 38.5L10 38.5L10 41.5L70 41.5L70 38.5Z" fill="black"/>
</svg>
